<?xml version="1.0" standalone="no"?>
<!DOCTYPE svg PUBLIC "-//W3C//DTD SVG 20010904//EN"
 "http://www.w3.org/TR/2001/REC-SVG-20010904/DTD/svg10.dtd">
<svg version="1.0" xmlns="http://www.w3.org/2000/svg"
 width="648.000000pt" height="648.000000pt" viewBox="0 0 648.000000 648.000000"
 preserveAspectRatio="xMidYMid meet">
<metadata>
Created by potrace 1.11, written by Peter Selinger 2001-2013
</metadata>
<g transform="translate(0.000000,648.000000) scale(0.100000,-0.100000)"
fill="#000000" stroke="none">
<path d="M3008 5625 c-2 -2 -48 -5 -103 -9 -144 -8 -195 -15 -335 -42 -543
-104 -1037 -368 -1425 -758 -126 -127 -161 -166 -210 -231 -16 -22 -34 -45
-40 -52 -5 -7 -16 -19 -22 -27 -75 -89 -260 -416 -331 -586 -62 -146 -145
-438 -167 -585 -4 -22 -9 -53 -12 -70 -13 -74 -26 -265 -26 -390 -1 -166 12
-326 37 -470 2 -11 7 -38 11 -60 4 -22 16 -76 27 -120 11 -44 21 -87 23 -96 5
-24 81 -249 100 -294 147 -357 384 -707 634 -940 l53 -50 1874 -1 1874 -1 73
76 c431 452 690 963 771 1524 4 27 9 56 11 65 19 101 26 469 12 612 -6 64 -20
163 -43 295 -3 17 -10 48 -15 70 -6 22 -12 47 -14 55 -15 80 -84 284 -141 417
-148 349 -381 677 -665 938 -99 91 -126 113 -233 193 -151 112 -360 233 -536
310 -145 64 -409 146 -548 172 -31 5 -66 12 -77 14 -11 2 -45 7 -75 11 -30 4
-62 9 -71 10 -55 10 -403 27 -411 20z m287 -108 c174 -12 570 -90 600 -118 5
-5 15 -9 22 -9 23 0 202 -69 303 -117 714 -338 1236 -966 1442 -1733 35 -130
64 -298 75 -431 14 -168 7 -487 -12 -588 -1 -9 -6 -36 -9 -61 -3 -25 -8 -56
-11 -70 -3 -14 -12 -56 -20 -95 -22 -110 -99 -359 -118 -382 -5 -7 -7 -13 -4
-13 13 0 -126 -287 -191 -395 -48 -79 -120 -185 -145 -212 -19 -21 -20 -21
-45 -5 -14 9 -57 28 -95 43 -58 21 -71 29 -74 49 -9 62 -117 126 -403 240 -85
34 -211 82 -280 107 -151 54 -180 66 -180 74 0 4 29 91 65 195 36 104 65 189
65 190 0 7 -163 -9 -250 -25 -63 -12 -130 -24 -147 -27 l-33 -5 19 43 c52 122
157 518 197 743 3 16 6 30 7 31 1 1 63 5 137 9 272 12 325 15 625 31 61 3 142
7 180 9 208 10 340 17 343 20 1 1 -44 12 -100 24 -137 28 -98 20 -493 106
-192 42 -359 78 -370 81 -11 2 -49 10 -84 17 -36 8 -68 20 -73 28 -4 8 -49
158 -99 334 -50 176 -106 352 -124 390 -18 39 -42 101 -55 138 -25 76 -53 108
-142 163 -116 71 -269 119 -453 141 -78 10 -440 10 -531 1 -218 -23 -418 -96
-535 -197 -41 -35 -51 -52 -73 -119 -14 -43 -38 -105 -54 -137 -16 -33 -71
-206 -122 -385 -51 -179 -96 -329 -100 -333 -7 -8 -93 -32 -145 -40 -23 -4
-343 -73 -425 -92 -27 -6 -264 -57 -309 -66 -23 -5 -59 -13 -80 -19 -20 -5
-52 -12 -71 -15 -20 -3 -49 -10 -65 -14 -27 -8 -24 -9 25 -11 30 -1 73 -3 95
-4 22 -2 103 -6 180 -10 77 -4 172 -10 210 -12 39 -2 131 -6 205 -10 74 -3
162 -7 195 -9 195 -10 332 -17 342 -18 7 0 15 -16 19 -36 18 -109 81 -371 116
-485 22 -72 43 -145 47 -161 4 -17 13 -40 20 -53 6 -12 10 -22 7 -22 -3 0 1
-12 9 -27 8 -15 13 -29 11 -30 -3 -3 -98 12 -236 39 -30 5 -85 11 -121 12
l-66 3 63 -191 c35 -105 64 -193 64 -197 0 -3 -53 -25 -117 -49 -322 -116
-610 -239 -690 -293 -31 -21 -55 -58 -57 -85 -1 -7 -34 -26 -74 -42 -40 -15
-84 -36 -98 -45 -33 -21 -36 -18 -116 103 -106 159 -196 327 -260 487 -23 56
-98 280 -103 305 -2 9 -10 45 -19 81 -70 294 -90 661 -50 939 35 245 80 421
159 625 322 834 1038 1446 1920 1641 62 14 271 44 340 50 44 3 81 7 82 7 3 4
263 -1 338 -6z"/>
</g>
</svg>
